<svg width="31" height="24" viewBox="0 0 31 24" fill="none" xmlns="http://www.w3.org/2000/svg">
<path d="M12.9001 22.5213L12.8916 22.5186L12.8647 22.5071C12.7074 22.4392 12.551 22.3689 12.3957 22.2965C10.5274 21.415 8.75733 20.339 7.1148 19.0862C4.20406 16.8483 1.01882 13.4189 0.583044 8.86174C0.257876 5.46125 2.86162 2.49091 6.31553 2.16063C7.27525 2.06412 8.24437 2.1852 9.15084 2.51489C10.0573 2.84458 10.8778 3.37438 11.5512 4.0649C12.0817 3.2591 12.7871 2.58329 13.6149 2.08777C14.4427 1.59224 15.3715 1.28975 16.3323 1.20279C19.7851 0.872625 22.9046 3.29569 23.2297 6.69617C23.6656 11.2545 21.188 15.2254 18.7539 17.9721C17.3786 19.5135 15.8445 20.9055 14.1771 22.1249C14.0384 22.2259 13.8982 22.3249 13.7566 22.4218L13.7324 22.4382L13.7247 22.4436L13.7214 22.4451C13.6018 22.5239 13.4648 22.5722 13.3223 22.5858C13.1798 22.5994 13.0361 22.578 12.9038 22.5233L12.9001 22.5213Z" fill="white"/>
<path d="M22.9772 19.6206L25.5594 13.1119L23.3694 13.3213L22.9854 9.30633L20.2938 15.8255L22.5933 15.6056L22.9772 19.6206ZM23.6246 21.7687C22.6148 21.8653 21.6474 21.7644 20.7226 21.4661C19.7978 21.1678 18.9755 20.7215 18.2557 20.1274C17.5358 19.5332 16.9418 18.8103 16.4736 17.9588C16.0055 17.1073 15.7231 16.1766 15.6265 15.1668C15.53 14.1569 15.6308 13.1896 15.9292 12.2648C16.2275 11.34 16.6737 10.5176 17.2679 9.79781C17.8621 9.07798 18.5849 8.48398 19.4365 8.01579C20.288 7.54761 21.2187 7.26524 22.2285 7.16867C23.2383 7.07211 24.2057 7.17299 25.1305 7.47131C26.0553 7.76963 26.8776 8.21588 27.5975 8.81006C28.3173 9.40424 28.9113 10.1271 29.3795 10.9786C29.8477 11.8301 30.13 12.7608 30.2266 13.7707C30.3232 14.7805 30.2223 15.7478 29.924 16.6726C29.6256 17.5975 29.1794 18.4198 28.5852 19.1396C27.991 19.8594 27.2682 20.4534 26.4167 20.9216C25.5651 21.3898 24.6345 21.6722 23.6246 21.7687Z" fill="#894189"/>
<path d="M23.3043 19.1205L25.6518 13.2035L23.6608 13.3939L23.3118 9.74388L20.8648 15.6704L22.9553 15.4705L23.3043 19.1205ZM23.8929 21.0733C22.9749 21.1611 22.0955 21.0694 21.2547 20.7982C20.414 20.527 19.6664 20.1213 19.012 19.5812C18.3576 19.041 17.8176 18.3839 17.392 17.6098C16.9664 16.8357 16.7097 15.9896 16.6219 15.0715C16.5341 14.1535 16.6258 13.2741 16.897 12.4334C17.1682 11.5926 17.5739 10.8451 18.1141 10.1907C18.6542 9.53629 19.3114 8.99628 20.0855 8.57066C20.8596 8.14504 21.7057 7.88834 22.6237 7.80055C23.5417 7.71277 24.4211 7.80448 25.2619 8.07568C26.1026 8.34688 26.8502 8.75256 27.5046 9.29272C28.159 9.83288 28.699 10.49 29.1246 11.2641C29.5502 12.0382 29.8069 12.8843 29.8947 13.8024C29.9825 14.7204 29.8908 15.5998 29.6196 16.4405C29.3484 17.2813 28.9427 18.0288 28.4025 18.6832C27.8624 19.3376 27.2052 19.8776 26.4311 20.3032C25.657 20.7289 24.8109 20.9856 23.8929 21.0733Z" fill="white"/>
</svg>
