<svg width="32" height="25" viewBox="0 0 32 25" fill="none" xmlns="http://www.w3.org/2000/svg">
<path d="M13.4472 23.1583L13.4387 23.1556L13.4118 23.1441C13.2545 23.0761 13.0981 23.0059 12.9428 22.9334C11.0745 22.052 9.30445 20.976 7.66192 19.7232C4.75118 17.4853 1.56594 14.0559 1.13016 9.4987C0.804995 6.09821 3.40874 3.12787 6.86265 2.7976C7.82237 2.70108 8.79149 2.82217 9.69796 3.15185C10.6044 3.48154 11.4249 4.01134 12.0984 4.70186C12.6289 3.89606 13.3342 3.22026 14.162 2.72473C14.9898 2.2292 15.9186 1.92671 16.8795 1.83975C20.3322 1.50959 23.4517 3.93265 23.7769 7.33314C24.2127 11.8915 21.7351 15.8624 19.3011 18.6091C17.9257 20.1504 16.3916 21.5424 14.7242 22.7619C14.5855 22.8629 14.4453 22.9619 14.3038 23.0588L14.2795 23.0752L14.2719 23.0806L14.2685 23.0821C14.1489 23.1608 14.0119 23.2091 13.8694 23.2228C13.7269 23.2364 13.5832 23.2149 13.4509 23.1603L13.4472 23.1583Z" fill="white"/>
<path d="M23.5243 20.2576L26.1065 13.7489L23.9165 13.9583L23.5325 9.94329L20.8409 16.4624L23.1404 16.2426L23.5243 20.2576ZM24.1717 22.4057C23.1619 22.5023 22.1946 22.4014 21.2697 22.1031C20.3449 21.8047 19.5226 21.3585 18.8028 20.7643C18.0829 20.1701 17.4889 19.4473 17.0208 18.5958C16.5526 17.7442 16.2702 16.8136 16.1736 15.8037C16.0771 14.7939 16.178 13.8266 16.4763 12.9017C16.7746 11.9769 17.2208 11.1546 17.815 10.4348C18.4092 9.71494 19.1321 9.12094 19.9836 8.65276C20.8351 8.18457 21.7658 7.9022 22.7756 7.80564C23.7855 7.70907 24.7528 7.80995 25.6776 8.10827C26.6024 8.40659 27.4247 8.85284 28.1446 9.44702C28.8644 10.0412 29.4584 10.7641 29.9266 11.6156C30.3948 12.4671 30.6771 13.3978 30.7737 14.4076C30.8703 15.4175 30.7694 16.3848 30.4711 17.3096C30.1728 18.2344 29.7265 19.0567 29.1323 19.7766C28.5381 20.4964 27.8153 21.0904 26.9638 21.5586C26.1123 22.0268 25.1816 22.3091 24.1717 22.4057Z" fill="#894189"/>
<path d="M23.8514 19.7575L26.1989 13.8405L24.208 14.0309L23.8589 10.3808L21.412 16.3073L23.5024 16.1074L23.8514 19.7575ZM24.44 21.7103C23.522 21.7981 22.6426 21.7064 21.8018 21.4352C20.9611 21.164 20.2135 20.7583 19.5591 20.2181C18.9048 19.678 18.3647 19.0208 17.9391 18.2467C17.5135 17.4726 17.2568 16.6265 17.169 15.7085C17.0812 14.7905 17.1729 13.9111 17.4441 13.0703C17.7153 12.2296 18.121 11.482 18.6612 10.8276C19.2014 10.1732 19.8585 9.63325 20.6326 9.20763C21.4067 8.78201 22.2528 8.5253 23.1708 8.43752C24.0889 8.34973 24.9682 8.44144 25.809 8.71264C26.6497 8.98384 27.3973 9.38952 28.0517 9.92968C28.7061 10.4698 29.2461 11.127 29.6717 11.9011C30.0973 12.6752 30.354 13.5213 30.4418 14.4393C30.5296 15.3573 30.4379 16.2367 30.1667 17.0775C29.8955 17.9182 29.4898 18.6658 28.9496 19.3202C28.4095 19.9746 27.7523 20.5146 26.9782 20.9402C26.2041 21.3658 25.358 21.6225 24.44 21.7103Z" fill="white"/>
</svg>
